<?xml version="1.0" standalone="no"?>
<!DOCTYPE svg PUBLIC "-//W3C//DTD SVG 20010904//EN"
 "http://www.w3.org/TR/2001/REC-SVG-20010904/DTD/svg10.dtd">
<svg version="1.0" xmlns="http://www.w3.org/2000/svg"
 width="700.000000pt" height="700.000000pt" viewBox="0 0 700.000000 700.000000"
 preserveAspectRatio="xMidYMid meet">
<metadata>
Created by potrace 1.11, written by Peter Selinger 2001-2013
</metadata>
<g transform="translate(0.000000,700.000000) scale(0.100000,-0.100000)"
fill="#000000" stroke="none">
<path d="M1300 5940 l0 -790 393 0 392 0 -2 442 c-1 244 0 452 2 463 4 20 12
20 1220 19 759 0 1215 -4 1216 -10 0 -10 -25 -41 -136 -168 -68 -79 -168 -195
-211 -246 -24 -28 -103 -120 -143 -165 -14 -16 -69 -79 -121 -140 -52 -60 -99
-115 -105 -121 -5 -6 -32 -37 -60 -70 -27 -32 -165 -191 -305 -354 -140 -162
-299 -347 -353 -410 -55 -63 -111 -128 -125 -145 -15 -16 -110 -127 -211 -245
-101 -118 -200 -233 -220 -255 -20 -22 -59 -67 -87 -100 -68 -79 -383 -445
-443 -514 -56 -65 -86 -100 -109 -126 -10 -11 -58 -67 -107 -125 -50 -58 -92
-107 -95 -110 -3 -3 -28 -32 -55 -65 -28 -33 -57 -66 -66 -75 -9 -8 -56 -62
-105 -120 -49 -58 -101 -118 -115 -135 -15 -16 -67 -76 -115 -133 l-89 -103 0
-327 0 -327 2355 -3 2355 -2 0 830 c0 617 -3 833 -12 838 -8 5 -624 8 -751 3
l-22 -1 0 -501 c0 -276 -2 -504 -4 -507 -4 -3 -2597 -6 -2739 -3 -29 1 -29 1
30 69 32 37 60 69 63 72 3 3 45 52 95 110 49 58 92 107 95 110 3 3 30 34 60
70 63 74 101 118 115 134 6 6 48 56 95 111 47 55 87 102 90 105 12 11 88 99
130 149 25 30 50 59 55 65 6 6 93 108 194 226 102 118 201 233 220 256 20 22
47 53 61 70 51 60 145 169 150 174 3 3 73 84 155 180 82 96 152 177 155 180 3
3 30 34 60 70 30 36 61 72 70 81 8 8 33 37 55 64 22 26 45 53 50 59 47 53 323
374 595 691 118 138 217 252 220 255 3 3 59 68 125 145 66 77 122 142 125 145
3 3 30 34 60 70 30 36 57 67 60 70 3 3 58 66 123 141 l117 137 0 291 0 291
-2225 0 -2225 0 0 -790z"/>
<path d="M1144 1152 l0 -58 58 1 c32 0 59 -4 60 -10 2 -5 3 -163 3 -350 l-1
-340 -59 0 -60 0 0 -53 c-1 -30 3 -56 7 -58 4 -2 69 -5 145 -5 223 -1 199 -7
197 49 -1 26 -2 52 -3 58 -1 6 -22 10 -51 9 -39 -1 -50 2 -51 14 -5 79 -2 646
3 659 4 10 7 12 7 4 1 -8 7 -28 15 -45 8 -18 65 -156 126 -307 62 -151 123
-300 135 -330 13 -30 29 -70 37 -87 25 -62 39 -44 127 170 45 111 89 216 96
232 7 17 41 97 75 180 34 82 68 161 75 174 10 20 12 -31 13 -300 0 -178 -1
-333 -3 -345 -4 -18 -11 -21 -60 -19 l-55 1 0 -58 c0 -48 3 -58 18 -59 81 -3
344 1 351 5 7 5 5 77 -4 103 -2 7 -21 10 -49 9 -24 -2 -49 0 -54 3 -11 8 -12
684 -1 691 5 3 31 5 59 4 l50 -1 1 36 c0 20 2 46 3 59 l3 22 -175 -2 -175 -3
-83 -200 c-45 -110 -87 -212 -94 -227 -6 -15 -26 -64 -45 -108 -18 -45 -35
-83 -37 -86 -3 -2 -40 80 -82 183 -42 103 -100 245 -129 315 l-52 128 -170 0
-171 0 0 -58z"/>
<path d="M2428 1188 c-2 -13 -1 -39 0 -59 l4 -36 61 2 62 1 0 -340 c0 -188 -3
-346 -7 -352 -4 -6 -32 -10 -63 -9 l-55 2 0 -58 c0 -49 3 -59 18 -60 23 0 671
0 747 0 l60 1 -2 123 c0 67 -2 131 -2 143 -1 18 -7 20 -53 18 -29 -1 -56 -2
-60 -3 -4 0 -8 -38 -10 -83 l-3 -83 -207 0 c-199 0 -207 0 -210 20 -2 11 -3
78 -3 150 l1 130 184 5 185 5 0 52 c1 40 -3 54 -15 57 -8 2 -87 4 -175 4 -88
0 -164 1 -170 1 -15 1 -13 265 2 271 7 3 101 5 210 5 l198 0 3 -82 3 -83 59 0
c59 0 60 1 61 28 1 31 1 233 0 245 -1 4 -185 7 -410 7 l-410 0 -3 -22z"/>
<path d="M3320 1152 l0 -58 65 1 c36 1 66 -1 66 -4 3 -16 5 -677 2 -687 -3 -7
-29 -10 -69 -9 l-64 2 0 -59 c0 -39 4 -58 13 -59 100 -5 495 4 583 15 56 6
167 47 210 77 104 71 164 213 165 386 0 230 -128 392 -347 438 -47 10 -147 14
-345 15 l-279 1 0 -59z m539 -67 c76 -7 160 -44 197 -88 67 -79 96 -206 74
-328 -38 -208 -141 -270 -455 -273 l-70 -1 0 335 c-1 184 1 342 3 351 3 14 17
16 95 13 51 -2 121 -6 156 -9z"/>
<path d="M4412 1153 l3 -58 40 -1 c22 -1 46 -2 53 -3 9 -1 12 -78 12 -349 l0
-348 -42 1 c-65 3 -69 -1 -67 -61 l2 -54 66 -1 c81 0 237 0 273 0 26 1 27 2
25 58 l-2 58 -50 0 -50 0 -3 344 c-1 243 1 347 9 351 6 4 30 6 53 5 l43 -1 2
58 2 58 -186 0 -186 0 3 -57z"/>
<path d="M5082 1161 c0 -55 6 -59 76 -55 23 1 42 0 42 -3 0 -13 -265 -699
-271 -703 -5 -4 -34 -5 -64 -5 l-56 1 2 -58 2 -58 36 -1 c166 -2 344 0 348 5
11 11 10 96 -1 105 -6 4 -32 7 -58 6 -31 -1 -48 3 -48 11 0 10 30 97 61 175
l10 26 174 -1 c95 -1 176 -4 179 -7 12 -12 75 -199 68 -202 -4 -2 -31 -3 -59
-2 -42 1 -53 -2 -54 -14 -3 -38 -1 -92 4 -97 8 -8 367 -7 375 1 13 13 9 105
-5 106 -7 1 -32 2 -54 3 -35 1 -44 5 -52 26 -6 14 -18 43 -28 65 -9 22 -43
108 -74 190 -32 83 -63 164 -70 180 -19 43 -95 243 -95 248 0 2 21 3 48 2 68
-2 72 1 72 56 l0 49 -254 0 -254 0 0 -49z m329 -247 c33 -98 61 -183 62 -188
2 -11 -262 -15 -269 -5 -2 4 17 65 42 135 25 71 55 157 66 192 12 36 25 59 30
54 5 -5 36 -89 69 -188z"/>
</g>
</svg>
